<svg width="261" height="508" viewBox="0 0 261 508" fill="none" xmlns="http://www.w3.org/2000/svg">
<rect width="261" height="508" rx="130.5" fill="url(#paint0_linear_1_186)"/>
<path d="M170.42 128.32V98.3758C170.406 87.9369 166.248 77.9297 158.859 70.5483C151.469 63.167 141.45 59.014 131 59C109.29 59 91.6238 76.6652 91.6238 98.3758V128.289C73.1588 140.912 61 162.129 61 186.078C61 224.597 92.4413 256 131 256C169.559 256 201 224.597 201 186.078C201 162.148 188.86 140.946 170.42 128.32ZM135.805 196.146V218.341C135.808 218.59 135.761 218.836 135.667 219.066C135.573 219.297 135.434 219.506 135.258 219.681C135.082 219.857 134.872 219.995 134.642 220.089C134.411 220.182 134.164 220.229 133.915 220.226H128.085C127.836 220.229 127.589 220.182 127.358 220.089C127.128 219.995 126.918 219.857 126.742 219.681C126.566 219.506 126.427 219.297 126.333 219.066C126.239 218.836 126.192 218.59 126.195 218.341V195.634C126.325 191.306 121.393 192.119 121.393 185.178C121.393 182.632 122.405 180.192 124.207 178.392C126.008 176.592 128.452 175.581 131 175.581C133.548 175.581 135.992 176.592 137.793 178.392C139.595 180.192 140.607 182.632 140.607 185.178C140.607 192.036 135.805 191.048 135.805 196.146ZM155.321 120.484C139.645 114.666 122.399 114.666 106.723 120.484V98.3913C106.723 91.954 109.283 85.7804 113.84 81.2285C118.397 76.6767 124.577 74.1194 131.022 74.1194C137.466 74.1194 143.647 76.6767 148.204 81.2285C152.761 85.7804 155.321 91.954 155.321 98.3913V120.484Z" fill="white"/>
<path d="M55.4637 301V298.888H57.5317V287.712H55.4637V285.6H63.2737C64.1977 285.6 65.0044 285.761 65.6937 286.084C66.383 286.392 66.9184 286.839 67.2997 287.426C67.6957 287.998 67.8937 288.68 67.8937 289.472V289.692C67.8937 290.396 67.7617 290.975 67.4977 291.43C67.2337 291.885 66.911 292.237 66.5297 292.486C66.163 292.735 65.811 292.911 65.4737 293.014V293.366C65.811 293.454 66.1704 293.63 66.5517 293.894C66.9477 294.143 67.2777 294.495 67.5417 294.95C67.8204 295.405 67.9597 295.999 67.9597 296.732V296.952C67.9597 297.803 67.7617 298.529 67.3657 299.13C66.9697 299.731 66.4197 300.193 65.7157 300.516C65.0264 300.839 64.227 301 63.3177 301H55.4637ZM59.9297 298.844H63.0317C63.8237 298.844 64.447 298.653 64.9017 298.272C65.3564 297.891 65.5837 297.363 65.5837 296.688V296.49C65.5837 295.815 65.3564 295.287 64.9017 294.906C64.4617 294.525 63.8384 294.334 63.0317 294.334H59.9297V298.844ZM59.9297 292.156H63.0317C63.7797 292.156 64.381 291.973 64.8357 291.606C65.2904 291.225 65.5177 290.711 65.5177 290.066V289.846C65.5177 289.201 65.2904 288.695 64.8357 288.328C64.3957 287.947 63.7944 287.756 63.0317 287.756H59.9297V292.156ZM70.6896 301V290.154H72.9556V301H70.6896ZM71.8336 288.68C71.3936 288.68 71.0196 288.541 70.7116 288.262C70.4182 287.969 70.2716 287.595 70.2716 287.14C70.2716 286.685 70.4182 286.319 70.7116 286.04C71.0196 285.747 71.3936 285.6 71.8336 285.6C72.2882 285.6 72.6622 285.747 72.9556 286.04C73.2489 286.319 73.3956 286.685 73.3956 287.14C73.3956 287.595 73.2489 287.969 72.9556 288.262C72.6622 288.541 72.2882 288.68 71.8336 288.68ZM80.3885 301C79.7285 301 79.2005 300.802 78.8045 300.406C78.4232 300.01 78.2325 299.482 78.2325 298.822V292.068H75.2405V290.154H78.2325V286.568H80.4985V290.154H83.7325V292.068H80.4985V298.426C80.4985 298.866 80.7038 299.086 81.1145 299.086H83.3805V301H80.3885ZM91.0459 301.308C90.0046 301.308 89.0586 301.088 88.2079 300.648C87.3719 300.208 86.7046 299.57 86.2059 298.734C85.7219 297.898 85.4799 296.893 85.4799 295.72V295.434C85.4799 294.261 85.7219 293.263 86.2059 292.442C86.7046 291.606 87.3719 290.968 88.2079 290.528C89.0586 290.073 90.0046 289.846 91.0459 289.846C92.0873 289.846 92.9746 290.037 93.7079 290.418C94.4413 290.799 95.0279 291.305 95.4679 291.936C95.9226 292.567 96.2159 293.263 96.3479 294.026L94.1479 294.488C94.0746 294.004 93.9206 293.564 93.6859 293.168C93.4513 292.772 93.1213 292.457 92.6959 292.222C92.2706 291.987 91.7353 291.87 91.0899 291.87C90.4593 291.87 89.8873 292.017 89.3739 292.31C88.8753 292.589 88.4793 292.999 88.1859 293.542C87.8926 294.07 87.7459 294.715 87.7459 295.478V295.676C87.7459 296.439 87.8926 297.091 88.1859 297.634C88.4793 298.177 88.8753 298.587 89.3739 298.866C89.8873 299.145 90.4593 299.284 91.0899 299.284C92.0433 299.284 92.7693 299.042 93.2679 298.558C93.7666 298.059 94.0819 297.429 94.2139 296.666L96.4139 297.172C96.2379 297.92 95.9226 298.609 95.4679 299.24C95.0279 299.871 94.4413 300.377 93.7079 300.758C92.9746 301.125 92.0873 301.308 91.0459 301.308ZM104.109 301.308C103.024 301.308 102.056 301.088 101.205 300.648C100.369 300.193 99.7095 299.548 99.2255 298.712C98.7415 297.876 98.4995 296.886 98.4995 295.742V295.412C98.4995 294.268 98.7415 293.285 99.2255 292.464C99.7095 291.628 100.369 290.983 101.205 290.528C102.056 290.073 103.024 289.846 104.109 289.846C105.195 289.846 106.163 290.073 107.013 290.528C107.864 290.983 108.531 291.628 109.015 292.464C109.499 293.285 109.741 294.268 109.741 295.412V295.742C109.741 296.886 109.499 297.876 109.015 298.712C108.531 299.548 107.864 300.193 107.013 300.648C106.163 301.088 105.195 301.308 104.109 301.308ZM104.109 299.284C105.107 299.284 105.913 298.969 106.529 298.338C107.16 297.693 107.475 296.805 107.475 295.676V295.478C107.475 294.349 107.167 293.469 106.551 292.838C105.935 292.193 105.121 291.87 104.109 291.87C103.127 291.87 102.32 292.193 101.689 292.838C101.073 293.469 100.765 294.349 100.765 295.478V295.676C100.765 296.805 101.073 297.693 101.689 298.338C102.32 298.969 103.127 299.284 104.109 299.284ZM112.563 301V290.154H114.829V301H112.563ZM113.707 288.68C113.267 288.68 112.893 288.541 112.585 288.262C112.291 287.969 112.145 287.595 112.145 287.14C112.145 286.685 112.291 286.319 112.585 286.04C112.893 285.747 113.267 285.6 113.707 285.6C114.161 285.6 114.535 285.747 114.829 286.04C115.122 286.319 115.269 286.685 115.269 287.14C115.269 287.595 115.122 287.969 114.829 288.262C114.535 288.541 114.161 288.68 113.707 288.68ZM118.192 301V290.154H120.414V291.782H120.766C120.971 291.342 121.338 290.931 121.866 290.55C122.394 290.169 123.178 289.978 124.22 289.978C125.041 289.978 125.767 290.161 126.398 290.528C127.043 290.895 127.549 291.415 127.916 292.09C128.282 292.75 128.466 293.549 128.466 294.488V301H126.2V294.664C126.2 293.725 125.965 293.036 125.496 292.596C125.026 292.141 124.381 291.914 123.56 291.914C122.621 291.914 121.866 292.222 121.294 292.838C120.736 293.454 120.458 294.349 120.458 295.522V301H118.192ZM141.778 301.308C140.399 301.308 139.255 301 138.346 300.384C137.437 299.768 136.879 298.837 136.674 297.59L138.786 297.084C138.903 297.685 139.101 298.162 139.38 298.514C139.659 298.866 140.003 299.115 140.414 299.262C140.839 299.409 141.294 299.482 141.778 299.482C142.497 299.482 143.047 299.343 143.428 299.064C143.824 298.785 144.022 298.426 144.022 297.986C144.022 297.546 143.839 297.223 143.472 297.018C143.105 296.813 142.563 296.644 141.844 296.512L141.096 296.38C140.363 296.248 139.695 296.057 139.094 295.808C138.493 295.559 138.016 295.214 137.664 294.774C137.312 294.334 137.136 293.769 137.136 293.08C137.136 292.053 137.517 291.261 138.28 290.704C139.043 290.132 140.055 289.846 141.316 289.846C142.533 289.846 143.531 290.125 144.308 290.682C145.1 291.225 145.613 291.965 145.848 292.904L143.736 293.498C143.604 292.838 143.325 292.376 142.9 292.112C142.475 291.833 141.947 291.694 141.316 291.694C140.7 291.694 140.216 291.811 139.864 292.046C139.512 292.266 139.336 292.581 139.336 292.992C139.336 293.432 139.505 293.755 139.842 293.96C140.194 294.165 140.663 294.319 141.25 294.422L142.02 294.554C142.797 294.686 143.509 294.869 144.154 295.104C144.799 295.339 145.305 295.676 145.672 296.116C146.053 296.556 146.244 297.143 146.244 297.876C146.244 298.961 145.841 299.805 145.034 300.406C144.227 301.007 143.142 301.308 141.778 301.308ZM153.865 301.308C152.765 301.308 151.804 301.081 150.983 300.626C150.161 300.157 149.516 299.504 149.047 298.668C148.592 297.817 148.365 296.835 148.365 295.72V295.456C148.365 294.327 148.592 293.344 149.047 292.508C149.501 291.657 150.132 291.005 150.939 290.55C151.76 290.081 152.706 289.846 153.777 289.846C154.818 289.846 155.727 290.081 156.505 290.55C157.297 291.005 157.913 291.643 158.353 292.464C158.793 293.285 159.013 294.246 159.013 295.346V296.204H150.675C150.704 297.157 151.019 297.92 151.621 298.492C152.237 299.049 152.999 299.328 153.909 299.328C154.759 299.328 155.397 299.137 155.823 298.756C156.263 298.375 156.6 297.935 156.835 297.436L158.705 298.404C158.499 298.815 158.199 299.247 157.803 299.702C157.421 300.157 156.915 300.538 156.285 300.846C155.654 301.154 154.847 301.308 153.865 301.308ZM150.697 294.466H156.703C156.644 293.645 156.351 293.007 155.823 292.552C155.295 292.083 154.605 291.848 153.755 291.848C152.904 291.848 152.207 292.083 151.665 292.552C151.137 293.007 150.814 293.645 150.697 294.466ZM166.778 301.308C165.737 301.308 164.791 301.088 163.94 300.648C163.104 300.208 162.437 299.57 161.938 298.734C161.454 297.898 161.212 296.893 161.212 295.72V295.434C161.212 294.261 161.454 293.263 161.938 292.442C162.437 291.606 163.104 290.968 163.94 290.528C164.791 290.073 165.737 289.846 166.778 289.846C167.82 289.846 168.707 290.037 169.44 290.418C170.174 290.799 170.76 291.305 171.2 291.936C171.655 292.567 171.948 293.263 172.08 294.026L169.88 294.488C169.807 294.004 169.653 293.564 169.418 293.168C169.184 292.772 168.854 292.457 168.428 292.222C168.003 291.987 167.468 291.87 166.822 291.87C166.192 291.87 165.62 292.017 165.106 292.31C164.608 292.589 164.212 292.999 163.918 293.542C163.625 294.07 163.478 294.715 163.478 295.478V295.676C163.478 296.439 163.625 297.091 163.918 297.634C164.212 298.177 164.608 298.587 165.106 298.866C165.62 299.145 166.192 299.284 166.822 299.284C167.776 299.284 168.502 299.042 169 298.558C169.499 298.059 169.814 297.429 169.946 296.666L172.146 297.172C171.97 297.92 171.655 298.609 171.2 299.24C170.76 299.871 170.174 300.377 169.44 300.758C168.707 301.125 167.82 301.308 166.778 301.308ZM178.918 301.198C178.097 301.198 177.363 301.015 176.718 300.648C176.073 300.281 175.567 299.761 175.2 299.086C174.833 298.411 174.65 297.605 174.65 296.666V290.154H176.916V296.512C176.916 297.451 177.151 298.147 177.62 298.602C178.089 299.042 178.742 299.262 179.578 299.262C180.502 299.262 181.243 298.954 181.8 298.338C182.372 297.707 182.658 296.805 182.658 295.632V290.154H184.924V301H182.702V299.372H182.35C182.145 299.812 181.778 300.23 181.25 300.626C180.722 301.007 179.945 301.198 178.918 301.198ZM188.274 301V290.154H190.496V291.43H190.848C191.024 290.975 191.302 290.645 191.684 290.44C192.08 290.22 192.564 290.11 193.136 290.11H194.434V292.156H193.048C192.314 292.156 191.713 292.361 191.244 292.772C190.774 293.168 190.54 293.784 190.54 294.62V301H188.274ZM201.367 301.308C200.267 301.308 199.306 301.081 198.485 300.626C197.663 300.157 197.018 299.504 196.549 298.668C196.094 297.817 195.867 296.835 195.867 295.72V295.456C195.867 294.327 196.094 293.344 196.549 292.508C197.003 291.657 197.634 291.005 198.441 290.55C199.262 290.081 200.208 289.846 201.279 289.846C202.32 289.846 203.229 290.081 204.007 290.55C204.799 291.005 205.415 291.643 205.855 292.464C206.295 293.285 206.515 294.246 206.515 295.346V296.204H198.177C198.206 297.157 198.521 297.92 199.123 298.492C199.739 299.049 200.501 299.328 201.411 299.328C202.261 299.328 202.899 299.137 203.325 298.756C203.765 298.375 204.102 297.935 204.337 297.436L206.207 298.404C206.001 298.815 205.701 299.247 205.305 299.702C204.923 300.157 204.417 300.538 203.787 300.846C203.156 301.154 202.349 301.308 201.367 301.308ZM198.199 294.466H204.205C204.146 293.645 203.853 293.007 203.325 292.552C202.797 292.083 202.107 291.848 201.257 291.848C200.406 291.848 199.709 292.083 199.167 292.552C198.639 293.007 198.316 293.645 198.199 294.466ZM90.33 331.308C89.5527 331.308 88.856 331.176 88.24 330.912C87.6387 330.648 87.1547 330.259 86.788 329.746C86.436 329.233 86.26 328.609 86.26 327.876C86.26 327.128 86.436 326.512 86.788 326.028C87.1547 325.529 87.646 325.155 88.262 324.906C88.8927 324.657 89.604 324.532 90.396 324.532H93.696V323.828C93.696 323.197 93.5053 322.691 93.124 322.31C92.7427 321.929 92.156 321.738 91.364 321.738C90.5867 321.738 89.9927 321.921 89.582 322.288C89.1713 322.655 88.9 323.131 88.768 323.718L86.656 323.036C86.832 322.449 87.1107 321.921 87.492 321.452C87.888 320.968 88.4087 320.579 89.054 320.286C89.6993 319.993 90.4767 319.846 91.386 319.846C92.794 319.846 93.9013 320.205 94.708 320.924C95.5147 321.643 95.918 322.662 95.918 323.982V328.448C95.918 328.888 96.1233 329.108 96.534 329.108H97.458V331H95.764C95.2507 331 94.8327 330.868 94.51 330.604C94.1873 330.34 94.026 329.981 94.026 329.526V329.46H93.696C93.5787 329.68 93.4027 329.937 93.168 330.23C92.9333 330.523 92.5887 330.78 92.134 331C91.6793 331.205 91.078 331.308 90.33 331.308ZM90.66 329.438C91.5693 329.438 92.3027 329.181 92.86 328.668C93.4173 328.14 93.696 327.421 93.696 326.512V326.292H90.528C89.9267 326.292 89.4427 326.424 89.076 326.688C88.7093 326.937 88.526 327.311 88.526 327.81C88.526 328.309 88.7167 328.705 89.098 328.998C89.4793 329.291 90 329.438 90.66 329.438ZM99.6613 331V320.154H101.883V321.782H102.235C102.441 321.342 102.807 320.931 103.335 320.55C103.863 320.169 104.648 319.978 105.689 319.978C106.511 319.978 107.237 320.161 107.867 320.528C108.513 320.895 109.019 321.415 109.385 322.09C109.752 322.75 109.935 323.549 109.935 324.488V331H107.669V324.664C107.669 323.725 107.435 323.036 106.965 322.596C106.496 322.141 105.851 321.914 105.029 321.914C104.091 321.914 103.335 322.222 102.763 322.838C102.206 323.454 101.927 324.349 101.927 325.522V331H99.6613ZM117.684 331.308C116.79 331.308 115.961 331.088 115.198 330.648C114.436 330.208 113.82 329.577 113.35 328.756C112.896 327.92 112.668 326.915 112.668 325.742V325.412C112.668 324.253 112.896 323.256 113.35 322.42C113.805 321.584 114.414 320.946 115.176 320.506C115.939 320.066 116.775 319.846 117.684 319.846C118.388 319.846 118.975 319.934 119.444 320.11C119.928 320.286 120.324 320.513 120.632 320.792C120.94 321.056 121.175 321.335 121.336 321.628H121.688V315.6H123.954V331H121.732V329.46H121.38C121.102 329.929 120.676 330.355 120.104 330.736C119.547 331.117 118.74 331.308 117.684 331.308ZM118.322 329.328C119.305 329.328 120.112 329.013 120.742 328.382C121.388 327.751 121.71 326.849 121.71 325.676V325.478C121.71 324.319 121.395 323.425 120.764 322.794C120.134 322.163 119.32 321.848 118.322 321.848C117.354 321.848 116.548 322.163 115.902 322.794C115.272 323.425 114.956 324.319 114.956 325.478V325.676C114.956 326.849 115.272 327.751 115.902 328.382C116.548 329.013 117.354 329.328 118.322 329.328ZM137.342 331.308C135.963 331.308 134.819 331 133.91 330.384C133 329.768 132.443 328.837 132.238 327.59L134.35 327.084C134.467 327.685 134.665 328.162 134.944 328.514C135.222 328.866 135.567 329.115 135.978 329.262C136.403 329.409 136.858 329.482 137.342 329.482C138.06 329.482 138.61 329.343 138.992 329.064C139.388 328.785 139.586 328.426 139.586 327.986C139.586 327.546 139.402 327.223 139.036 327.018C138.669 326.813 138.126 326.644 137.408 326.512L136.66 326.38C135.926 326.248 135.259 326.057 134.658 325.808C134.056 325.559 133.58 325.214 133.228 324.774C132.876 324.334 132.7 323.769 132.7 323.08C132.7 322.053 133.081 321.261 133.844 320.704C134.606 320.132 135.618 319.846 136.88 319.846C138.097 319.846 139.094 320.125 139.872 320.682C140.664 321.225 141.177 321.965 141.412 322.904L139.3 323.498C139.168 322.838 138.889 322.376 138.464 322.112C138.038 321.833 137.51 321.694 136.88 321.694C136.264 321.694 135.78 321.811 135.428 322.046C135.076 322.266 134.9 322.581 134.9 322.992C134.9 323.432 135.068 323.755 135.406 323.96C135.758 324.165 136.227 324.319 136.814 324.422L137.584 324.554C138.361 324.686 139.072 324.869 139.718 325.104C140.363 325.339 140.869 325.676 141.236 326.116C141.617 326.556 141.808 327.143 141.808 327.876C141.808 328.961 141.404 329.805 140.598 330.406C139.791 331.007 138.706 331.308 137.342 331.308ZM147.736 331.308C146.959 331.308 146.262 331.176 145.646 330.912C145.045 330.648 144.561 330.259 144.194 329.746C143.842 329.233 143.666 328.609 143.666 327.876C143.666 327.128 143.842 326.512 144.194 326.028C144.561 325.529 145.052 325.155 145.668 324.906C146.299 324.657 147.01 324.532 147.802 324.532H151.102V323.828C151.102 323.197 150.912 322.691 150.53 322.31C150.149 321.929 149.562 321.738 148.77 321.738C147.993 321.738 147.399 321.921 146.988 322.288C146.578 322.655 146.306 323.131 146.174 323.718L144.062 323.036C144.238 322.449 144.517 321.921 144.898 321.452C145.294 320.968 145.815 320.579 146.46 320.286C147.106 319.993 147.883 319.846 148.792 319.846C150.2 319.846 151.308 320.205 152.114 320.924C152.921 321.643 153.324 322.662 153.324 323.982V328.448C153.324 328.888 153.53 329.108 153.94 329.108H154.864V331H153.17C152.657 331 152.239 330.868 151.916 330.604C151.594 330.34 151.432 329.981 151.432 329.526V329.46H151.102C150.985 329.68 150.809 329.937 150.574 330.23C150.34 330.523 149.995 330.78 149.54 331C149.086 331.205 148.484 331.308 147.736 331.308ZM148.066 329.438C148.976 329.438 149.709 329.181 150.266 328.668C150.824 328.14 151.102 327.421 151.102 326.512V326.292H147.934C147.333 326.292 146.849 326.424 146.482 326.688C146.116 326.937 145.932 327.311 145.932 327.81C145.932 328.309 146.123 328.705 146.504 328.998C146.886 329.291 147.406 329.438 148.066 329.438ZM158.274 331V322.068H155.238V320.154H158.274V317.778C158.274 317.118 158.472 316.59 158.868 316.194C159.264 315.798 159.792 315.6 160.452 315.6H163.246V317.514H161.178C160.752 317.514 160.54 317.734 160.54 318.174V320.154H163.664V322.068H160.54V331H158.274ZM170.504 331.308C169.404 331.308 168.444 331.081 167.622 330.626C166.801 330.157 166.156 329.504 165.686 328.668C165.232 327.817 165.004 326.835 165.004 325.72V325.456C165.004 324.327 165.232 323.344 165.686 322.508C166.141 321.657 166.772 321.005 167.578 320.55C168.4 320.081 169.346 319.846 170.416 319.846C171.458 319.846 172.367 320.081 173.144 320.55C173.936 321.005 174.552 321.643 174.992 322.464C175.432 323.285 175.652 324.246 175.652 325.346V326.204H167.314C167.344 327.157 167.659 327.92 168.26 328.492C168.876 329.049 169.639 329.328 170.548 329.328C171.399 329.328 172.037 329.137 172.462 328.756C172.902 328.375 173.24 327.935 173.474 327.436L175.344 328.404C175.139 328.815 174.838 329.247 174.442 329.702C174.061 330.157 173.555 330.538 172.924 330.846C172.294 331.154 171.487 331.308 170.504 331.308ZM167.336 324.466H173.342C173.284 323.645 172.99 323.007 172.462 322.552C171.934 322.083 171.245 321.848 170.394 321.848C169.544 321.848 168.847 322.083 168.304 322.552C167.776 323.007 167.454 323.645 167.336 324.466Z" fill="white"/>
<rect x="51" y="400" width="160" height="8" rx="4" fill="#523FFF"/>
<rect x="43" y="420" width="176" height="8" rx="4" fill="#523FFF"/>
<rect x="68" y="440" width="126" height="8" rx="4" fill="#523FFF"/>
<defs>
<linearGradient id="paint0_linear_1_186" x1="-8.47737" y1="254.973" x2="275.129" y2="254.973" gradientUnits="userSpaceOnUse">
<stop stop-color="#2C18E5"/>
<stop offset="0.46875" stop-color="#5442F4"/>
<stop offset="1" stop-color="#5442F5"/>
</linearGradient>
</defs>
</svg>
