<svg width="65" height="81" viewBox="0 0 65 81" fill="none" xmlns="http://www.w3.org/2000/svg">
<path d="M30.2322 64.6962C26.0094 64.6962 22.2224 64.6132 18.4353 64.7273C15.9452 64.7999 15.0322 63.7468 15.1204 61.3242C15.2345 58.2115 15.0426 55.0989 15.1826 51.9862C15.276 49.9942 14.503 49.4443 12.6251 49.5221C9.51244 49.6466 6.3998 49.4391 3.28716 49.5895C0.739985 49.714 -0.0589184 48.6142 0.00333441 46.2071C0.112277 42.1503 0.00333441 38.0883 0.00333441 34.0263C0.00333441 30.7788 0.392412 30.3949 3.55174 30.3949C6.71107 30.3949 9.77702 30.343 12.8897 30.4208C14.5497 30.4623 15.2086 29.8761 15.1463 28.1642C15.0426 25.0516 15.1048 21.9389 15.1152 18.8263C15.1256 15.7136 15.7066 15.1534 18.7051 15.1274C22.4091 15.0963 26.1132 15.1274 30.1907 15.1274C30.1907 11.1847 30.1907 7.41846 30.1907 3.65216C30.1907 0.679593 30.8444 0.0207509 33.8222 0.0207509C37.8859 -0.00691698 41.9479 -0.00691698 46.0081 0.0207509C48.9496 0.0207509 49.5929 0.715893 49.6084 3.73515C49.6084 7.434 49.6084 11.1329 49.6084 15.2312C53.4785 15.2312 57.0839 15.2312 60.6946 15.2312C64.3053 15.2312 64.6995 15.6669 64.7047 19.262C64.7047 23.324 64.6528 27.386 64.7047 31.448C64.741 33.6528 63.8228 34.5607 61.5921 34.5244C57.3589 34.4413 53.1205 34.5244 48.8873 34.5244C45.6761 34.5244 45.2559 34.1042 45.2559 30.9656C45.2559 27.827 45.1937 24.5691 45.2559 21.3734C45.287 19.9157 44.7371 19.3762 43.3001 19.428C41.0538 19.511 38.8024 19.5266 36.5561 19.428C34.8234 19.3554 34.289 20.1284 34.315 21.7418C34.372 24.9374 34.2579 28.1382 34.315 31.3339C34.3669 33.6009 33.5576 34.6696 31.1297 34.5658C27.8563 34.4258 24.5621 34.597 21.273 34.5192C19.7167 34.4828 19.089 35.0794 19.1357 36.6306C19.2031 38.965 19.1876 41.2995 19.1357 43.634C19.1046 45.071 19.7115 45.6313 21.1485 45.6053C24.3442 45.5483 27.545 45.6053 30.7406 45.6053C33.9363 45.6053 34.2475 45.9581 34.2683 49.2368C34.2683 52.2612 34.3305 55.2856 34.2683 58.3101C34.2216 60.0168 34.6885 60.8417 36.5976 60.7431C39.3419 60.5979 42.0966 60.7068 45.23 60.7068C45.23 56.8056 45.23 53.1276 45.23 49.4443C45.23 46.0204 45.6346 45.6313 49.1363 45.6261C53.2865 45.6261 57.4367 45.6831 61.5869 45.6261C63.7917 45.5846 64.7255 46.4769 64.6995 48.7024C64.6217 53.1068 64.6477 57.5216 64.6995 61.926C64.6995 63.8765 63.8643 64.7688 61.893 64.7481C58.5261 64.7118 55.1489 64.8155 51.7873 64.7481C50.0753 64.7066 49.5098 65.3758 49.5565 67.041C49.6499 70.2367 49.515 73.4375 49.6032 76.6331C49.6707 78.9054 48.7317 80.057 46.4491 80.057C42.0395 80.057 37.63 80.057 33.2256 80.057C31.109 80.057 30.1129 79.0506 30.1648 76.8355C30.2945 72.8772 30.2322 69.002 30.2322 64.6962ZM15.1463 40.1271C15.1463 34.488 15.1463 34.488 9.64213 34.5036C4.13795 34.5191 4.14833 34.5036 4.14833 39.9196C4.14833 45.5535 4.14833 45.5535 9.69401 45.5535C15.1411 45.5535 15.1411 45.5535 15.1463 40.1271ZM30.0766 49.5688C26.8239 49.5688 23.9032 49.5065 20.9929 49.6206C20.4119 49.6206 19.3847 50.3262 19.364 50.736C19.2291 53.9628 19.2913 57.1999 19.2913 60.4008H30.0766V49.5688ZM30.0766 19.6304C19.3743 18.4735 18.7933 18.9456 19.2498 28.159C19.2498 28.5014 19.1668 28.932 19.3328 29.1965C19.6389 29.6427 20.0954 30.3015 20.5001 30.3119C23.6594 30.4053 26.8239 30.3638 30.0766 30.3638V19.6304ZM49.6499 60.4941H60.456C60.456 57.2051 60.5338 54.0302 60.3782 50.8709C60.3782 50.404 59.2835 49.6466 58.6662 49.6103C56.2591 49.465 53.8416 49.6103 51.4293 49.5428C50.0961 49.5117 49.5825 50.0616 49.6032 51.3793C49.6759 54.3052 49.6395 57.231 49.6395 60.4941H49.6499ZM45.3026 75.6942C45.3026 72.2962 45.3804 69.2873 45.2352 66.2888C45.1416 65.9335 44.9584 65.6081 44.7032 65.3438C44.448 65.0795 44.1292 64.8851 43.7774 64.7792C41.1947 64.6184 38.6045 64.6184 36.0217 64.7792C35.6564 64.8781 35.3221 65.068 35.0499 65.3311C34.7778 65.5941 34.5767 65.9218 34.4654 66.2836C34.2879 68.8745 34.2879 71.4744 34.4654 74.0652C34.5069 74.6514 35.5445 75.6215 36.167 75.6215C39.0462 75.7875 41.9669 75.6942 45.2922 75.6942H45.3026ZM60.5286 24.9841C60.5286 19.3814 60.5286 19.3813 54.9051 19.3917C49.6395 19.3917 49.6396 19.3917 49.6344 24.7922C49.6344 30.3949 49.6344 30.4416 55.2215 30.3794C61.1096 30.3379 60.456 31.4532 60.5286 24.9841ZM45.2715 15.1274C45.2715 11.7761 45.3597 8.77245 45.1885 5.78951C45.1625 5.27073 44.0783 4.41476 43.4298 4.36807C41.1213 4.19169 38.7868 4.36808 36.4627 4.27989C35.0568 4.24358 34.3876 4.79865 34.3876 6.2149C34.4187 8.62201 34.2787 11.0395 34.4654 13.4362C34.5773 13.8226 34.7854 14.1743 35.0703 14.4583C35.3552 14.7423 35.7076 14.9494 36.0944 15.06C39.0203 15.2467 41.941 15.1534 45.2715 15.1534V15.1274Z" fill="#00B4FF"/>
</svg>
