<svg width="80" height="80" viewBox="0 0 80 80" fill="none" xmlns="http://www.w3.org/2000/svg">
<circle cx="40" cy="40" r="40" fill="#5846FB"/>
<path d="M32.5184 25.9885V20H36.502V25.9558H38.7467V20.0044H42.7479V26.0167C43.3369 26.105 43.8959 26.1827 44.4566 26.2816C46.0462 26.5738 47.5571 27.0576 48.9665 27.8708C53.1584 30.2792 52.6224 35.7371 49.4963 38.1226L49.0212 38.4872C49.4168 38.6585 49.7869 38.7883 50.1277 38.9728C52.5844 40.3033 53.8366 42.3648 53.8472 45.1652C53.8582 46.2855 53.6843 47.3999 53.3324 48.4636C52.4281 51.144 50.4703 52.6519 47.8238 53.3803C46.365 53.7811 44.8717 53.8915 43.3669 53.9029H42.8027V60H38.9048V53.9347H36.6371V59.9982H32.6412V53.9241H25.4V49.6952H27.8108C29.2749 49.6952 29.6502 49.3209 29.6511 47.8412C29.6511 42.4427 29.6511 37.0437 29.6511 31.6441C29.6511 30.5352 29.3138 30.1574 28.1958 30.1132C27.2854 30.0779 26.3714 30.1018 25.4583 30.0991H25V25.9929L32.5184 25.9885ZM36.5276 49.2388C36.577 49.2635 36.6026 49.2882 36.6282 49.2882C38.5516 49.244 40.4811 49.267 42.3973 49.1266C43.6336 49.0383 44.7613 48.5192 45.5658 47.4942C47.2551 45.3444 46.5221 42.7991 43.9286 41.994C43.057 41.7229 42.1174 41.6028 41.2025 41.5578C39.779 41.4863 38.3502 41.5375 36.9232 41.5393C36.796 41.5393 36.6689 41.5561 36.5276 41.5666V49.2388ZM36.5276 37.4189C38.1233 37.4189 39.6678 37.4693 41.2078 37.4057C42.8786 37.336 44.2853 35.9304 44.4619 34.2795C44.6624 32.4096 43.8818 31.2618 42.0132 30.7065C40.2188 30.1768 38.3785 30.3887 36.5285 30.3428L36.5276 37.4189Z" fill="white"/>
</svg>
