<svg width="74" height="74" viewBox="0 0 74 74" fill="none" xmlns="http://www.w3.org/2000/svg">
<path d="M36.4432 73.998C16.0993 73.7905 -0.238915 56.9852 0.00264442 36.4697C0.242316 16.1013 17.0628 -0.27664 37.5641 0.00354198C57.8994 0.280894 74.2122 17.0229 73.998 37.5074C73.7857 57.8691 56.97 74.2074 36.4432 73.998ZM6.35301 36.9932C6.35301 53.873 20.0766 67.5916 36.965 67.6019C53.8231 67.6123 67.5656 53.8966 67.576 37.0508C67.5863 20.1861 53.8392 6.41376 36.9886 6.40905C20.1058 6.40339 6.35018 20.137 6.35301 36.9932Z" fill="#FFC200"/>
<path d="M29.7082 21.785V15.3861H33.9647V21.7501H36.3633V15.3908H40.6387V21.8152C41.2681 21.9095 41.8654 21.9926 42.4646 22.0982C44.163 22.4105 45.7775 22.9274 47.2835 23.7963C51.7627 26.3698 51.1899 32.2017 47.8496 34.7507L47.342 35.1404C47.7647 35.3234 48.1601 35.462 48.5243 35.6592C51.1494 37.0809 52.4874 39.2837 52.4987 42.276C52.5105 43.4731 52.3246 44.6639 51.9486 45.8005C50.9823 48.6646 48.8904 50.2758 46.0625 51.0541C44.5037 51.4824 42.9081 51.6003 41.3002 51.6126H40.6972V58.1275H36.5322V51.6466H34.1091V58.1257H29.8393V51.6352H22.1019V47.1165H24.6779C26.2424 47.1165 26.6434 46.7165 26.6443 45.1354C26.6443 39.367 26.6443 33.5979 26.6443 27.8283C26.6443 26.6434 26.2839 26.2396 25.0893 26.1925C24.1165 26.1547 23.1398 26.1802 22.1642 26.1774H21.6744V21.7897L29.7082 21.785ZM33.9921 46.6288C34.0449 46.6552 34.0723 46.6816 34.0996 46.6816C36.1548 46.6344 38.2165 46.659 40.2641 46.509C41.5851 46.4146 42.7901 45.8599 43.6497 44.7647C45.4548 42.4675 44.6716 39.7478 41.9003 38.8874C40.969 38.5978 39.965 38.4695 38.9874 38.4214C37.4664 38.345 35.9396 38.3997 34.4148 38.4016C34.2789 38.4016 34.143 38.4195 33.9921 38.4308V46.6288ZM33.9921 33.9989C35.6971 33.9989 37.3475 34.0526 38.9931 33.9847C40.7784 33.9102 42.2815 32.4083 42.4702 30.6442C42.6844 28.6462 41.8503 27.4198 39.8536 26.8264C37.9363 26.2604 35.9698 26.4868 33.993 26.4377L33.9921 33.9989Z" fill="#FFC200"/>
</svg>
