<svg width="53" height="72" viewBox="0 0 53 72" fill="none" xmlns="http://www.w3.org/2000/svg">
<path d="M51.5493 18.3022C51.5493 18.3022 50.4942 19.1656 50.2065 19.1656C48.4802 15.7987 46.7541 12.6043 44.7401 9.32372C44.7401 8.37408 43.781 8.11523 42.3424 7.85624C36.7552 7.02084 31.1194 6.47316 25.4629 6.21593C24.5038 6.21593 24.216 6.21571 24.216 7.33801C24.216 13.1222 23.2569 31.7697 23.2569 34.8777C29.0113 34.8777 43.4932 35.482 47.6171 35.482C47.6171 36 47.6171 37.1224 46.658 37.2088C41.8627 37.6404 30.4499 38.2446 23.9283 38.6762C23.0652 38.6762 22.8732 38.6764 22.8732 39.626C22.8732 42.9929 22.8732 61.7267 22.8732 64.0576C22.8732 66.3886 23.4489 65.3527 24.312 65.5254L32.0804 66.5613C32.0804 66.5613 32.7518 67.2518 32.7518 67.7698C29.2033 67.7698 23.161 67.7698 16.3517 67.7698C9.54233 67.7698 5.32267 67.7698 1.58233 67.7698C1.60546 67.2498 1.8449 66.7569 2.25345 66.3887L6.95305 65.6115C7.8162 65.6115 8.00797 65.18 8.10387 64.144C8.10387 60.5181 8.10387 40.0576 8.10387 35.741C8.10387 31.4245 8.1039 11.3093 7.52846 7.94239C7.52846 6.99275 7.52831 6.56124 6.47334 6.47491L1.48633 5.52513C1.48633 5.52513 1.48633 4.7482 1.48633 4.23022H9.3507H15.1048C38.9855 4.23022 49.727 4.23022 51.4533 4.23022C53.1796 4.23022 52.2207 4.2301 52.2207 4.92075L51.5493 18.3022Z" fill="#FDFDFD"/>
</svg>
