<svg width="265" height="441" viewBox="0 0 265 441" fill="none" xmlns="http://www.w3.org/2000/svg">
<rect y="441" width="441" height="265" rx="132.5" transform="rotate(-90 0 441)" fill="black"/>
<rect x="86" y="69" width="94" height="303" rx="47" stroke="url(#paint0_linear_1_224)" stroke-width="6"/>
<circle cx="133" cy="116" r="50" fill="url(#paint1_linear_1_224)"/>
<path d="M124.132 97.4953V89.7129H129.308V97.4529H132.226V89.7186H137.425V97.5321C138.191 97.6468 138.917 97.7478 139.646 97.8763C141.712 98.256 143.675 98.8848 145.507 99.9415C150.955 103.071 150.258 110.164 146.196 113.264L145.578 113.738C146.092 113.961 146.573 114.13 147.016 114.369C150.209 116.098 151.836 118.777 151.85 122.417C151.864 123.873 151.638 125.321 151.181 126.703C150.006 130.187 147.461 132.146 144.022 133.093C142.126 133.614 140.186 133.757 138.23 133.772H137.497V141.696H132.431V133.813H129.484V141.693H124.291V133.8H114.881V128.304H118.014C119.916 128.304 120.404 127.817 120.405 125.894C120.405 118.879 120.405 111.862 120.405 104.845C120.405 103.404 119.967 102.913 118.514 102.856C117.331 102.81 116.143 102.841 114.956 102.837H114.361V97.5011L124.132 97.4953ZM129.342 127.711C129.406 127.743 129.439 127.775 129.473 127.775C131.972 127.718 134.48 127.747 136.97 127.565C138.577 127.45 140.042 126.776 141.088 125.444C143.283 122.65 142.33 119.342 138.96 118.296C137.827 117.943 136.606 117.787 135.417 117.729C133.567 117.636 131.71 117.702 129.856 117.705C129.691 117.705 129.525 117.727 129.342 117.74V127.711ZM129.342 112.35C131.415 112.35 133.423 112.415 135.424 112.333C137.595 112.242 139.423 110.416 139.653 108.27C139.914 105.84 138.899 104.348 136.471 103.627C134.139 102.938 131.747 103.214 129.343 103.154L129.342 112.35Z" fill="black"/>
<circle cx="132" cy="325" r="50" fill="#5846FB"/>
<path d="M149.282 346.959C147.081 346.959 145.147 346.933 143.215 346.973C142.569 346.985 142.357 346.57 142.087 346.143L132.779 331.465C132.081 330.375 132.081 330.38 131.424 331.432C128.348 336.295 125.253 341.144 122.212 346.028C121.76 346.75 121.281 347.022 120.448 346.98C119.016 346.905 117.581 346.98 116.15 346.95C115.828 346.95 115.389 347.144 115.219 346.769C115.077 346.471 115.43 346.218 115.589 345.965C118.164 341.892 120.743 337.82 123.326 333.75C123.468 333.53 123.596 333.3 123.731 333.073C123.37 332.766 123.012 332.892 122.686 332.892C119.163 332.88 115.638 332.855 112.114 332.906C111.225 332.92 110.951 332.651 111.028 331.784C111.107 330.812 111.107 329.835 111.028 328.863C110.937 327.816 111.244 327.483 112.345 327.492C119.279 327.546 126.212 327.518 133.146 327.518C139.429 327.518 145.696 327.535 151.97 327.502C152.845 327.502 153.236 327.67 153.157 328.643C153.073 329.693 153.073 330.748 153.157 331.798C153.226 332.716 152.863 332.897 152.028 332.888C148.621 332.843 145.212 332.869 141.803 332.869H140.393L149.282 346.959Z" fill="white"/>
<path d="M149.419 303.015L140.577 316.998H148.221C149.578 316.998 150.932 317.028 152.286 316.983C152.952 316.962 153.164 317.197 153.14 317.853C153.096 319.025 153.08 320.197 153.14 321.368C153.187 322.205 152.88 322.409 152.086 322.402C147.709 322.367 143.334 322.386 138.959 322.386C130.054 322.386 121.148 322.372 112.245 322.407C111.3 322.407 110.928 322.203 111.011 321.197C111.089 320.148 111.089 319.094 111.011 318.045C110.963 317.237 111.212 316.979 112.038 316.988C115.638 317.03 119.24 317.007 122.84 317.005C123.026 317.005 123.212 316.983 123.619 316.96L114.805 303.034C117.071 303.034 119.133 303.034 121.197 303.034C121.662 303.034 121.779 303.503 121.977 303.814C125.134 308.814 128.288 313.808 131.441 318.795C131.622 319.081 131.825 319.353 132.111 319.768C133.481 317.614 134.794 315.563 136.097 313.508C138.133 310.292 140.179 307.079 142.187 303.843C142.555 303.25 142.943 302.98 143.662 303.001C145.512 303.05 147.358 303.015 149.419 303.015Z" fill="white"/>
<defs>
<linearGradient id="paint0_linear_1_224" x1="133" y1="66" x2="133" y2="375" gradientUnits="userSpaceOnUse">
<stop stop-color="#FFC250"/>
<stop offset="0.3125" stop-color="#412EED"/>
<stop offset="0.552083" stop-color="#FFC250"/>
<stop offset="0.958333" stop-color="#4330ED"/>
</linearGradient>
<linearGradient id="paint1_linear_1_224" x1="150.5" y1="77.5" x2="133" y2="153" gradientUnits="userSpaceOnUse">
<stop stop-color="#FFCE31"/>
<stop offset="0.515625" stop-color="#FFCF5A"/>
<stop offset="1" stop-color="#FCA400"/>
</linearGradient>
</defs>
</svg>
