<svg width="155" height="22" viewBox="0 0 155 22" fill="none" xmlns="http://www.w3.org/2000/svg">
<path d="M8.34 21.84C5.78 21.84 3.75 21.12 2.25 19.68C0.749999 18.22 -1.42306e-06 16.12 -1.42306e-06 13.38V8.46C-1.42306e-06 5.72 0.749999 3.63 2.25 2.19C3.75 0.729997 5.78 -3.21865e-06 8.34 -3.21865e-06C10.86 -3.21865e-06 12.8 0.699997 14.16 2.1C15.54 3.5 16.23 5.41 16.23 7.83V8.01H13.02V7.74C13.02 6.32 12.63 5.16 11.85 4.26C11.09 3.36 9.92 2.91 8.34 2.91C6.74 2.91 5.49 3.4 4.59 4.38C3.69 5.34 3.24 6.68 3.24 8.4V13.44C3.24 15.14 3.69 16.48 4.59 17.46C5.49 18.44 6.74 18.93 8.34 18.93C9.92 18.93 11.09 18.48 11.85 17.58C12.63 16.66 13.02 15.5 13.02 14.1V13.59H16.23V14.01C16.23 16.43 15.54 18.34 14.16 19.74C12.8 21.14 10.86 21.84 8.34 21.84ZM26.8373 21.84C25.3573 21.84 24.0373 21.54 22.8773 20.94C21.7373 20.32 20.8373 19.44 20.1773 18.3C19.5173 17.16 19.1873 15.81 19.1873 14.25V13.8C19.1873 12.24 19.5173 10.9 20.1773 9.78C20.8373 8.64 21.7373 7.76 22.8773 7.14C24.0373 6.52 25.3573 6.21 26.8373 6.21C28.3173 6.21 29.6373 6.52 30.7973 7.14C31.9573 7.76 32.8673 8.64 33.5273 9.78C34.1873 10.9 34.5173 12.24 34.5173 13.8V14.25C34.5173 15.81 34.1873 17.16 33.5273 18.3C32.8673 19.44 31.9573 20.32 30.7973 20.94C29.6373 21.54 28.3173 21.84 26.8373 21.84ZM26.8373 19.08C28.1973 19.08 29.2973 18.65 30.1373 17.79C30.9973 16.91 31.4273 15.7 31.4273 14.16V13.89C31.4273 12.35 31.0073 11.15 30.1673 10.29C29.3273 9.41 28.2173 8.97 26.8373 8.97C25.4973 8.97 24.3973 9.41 23.5373 10.29C22.6973 11.15 22.2773 12.35 22.2773 13.89V14.16C22.2773 15.7 22.6973 16.91 23.5373 17.79C24.3973 18.65 25.4973 19.08 26.8373 19.08ZM38.3644 21.42V6.63H41.4544V21.42H38.3644ZM39.9244 4.62C39.3244 4.62 38.8144 4.43 38.3944 4.05C37.9944 3.65 37.7944 3.14 37.7944 2.52C37.7944 1.9 37.9944 1.4 38.3944 1.02C38.8144 0.619997 39.3244 0.419997 39.9244 0.419997C40.5444 0.419997 41.0544 0.619997 41.4544 1.02C41.8544 1.4 42.0544 1.9 42.0544 2.52C42.0544 3.14 41.8544 3.65 41.4544 4.05C41.0544 4.43 40.5444 4.62 39.9244 4.62ZM46.0402 21.42V6.63H49.0702V8.85H49.5502C49.8302 8.25 50.3302 7.69 51.0502 7.17C51.7702 6.65 52.8402 6.39 54.2602 6.39C55.3802 6.39 56.3702 6.64 57.2302 7.14C58.1102 7.64 58.8002 8.35 59.3002 9.27C59.8002 10.17 60.0502 11.26 60.0502 12.54V21.42H56.9602V12.78C56.9602 11.5 56.6402 10.56 56.0002 9.96C55.3602 9.34 54.4802 9.03 53.3602 9.03C52.0802 9.03 51.0502 9.45 50.2702 10.29C49.5102 11.13 49.1302 12.35 49.1302 13.95V21.42H46.0402ZM64.4072 21.42V0.419997H77.3672V3.36H67.6472V9.42H76.5872V12.36H67.6472V21.42H64.4072ZM86.2805 21.69C85.1605 21.69 84.1605 21.44 83.2805 20.94C82.4005 20.44 81.7105 19.73 81.2105 18.81C80.7105 17.89 80.4605 16.79 80.4605 15.51V6.63H83.5505V15.3C83.5505 16.58 83.8705 17.53 84.5105 18.15C85.1505 18.75 86.0405 19.05 87.1805 19.05C88.4405 19.05 89.4505 18.63 90.2105 17.79C90.9905 16.93 91.3805 15.7 91.3805 14.1V6.63H94.4705V21.42H91.4405V19.2H90.9605C90.6805 19.8 90.1805 20.37 89.4605 20.91C88.7405 21.43 87.6805 21.69 86.2805 21.69ZM105.098 21.84C103.218 21.84 101.658 21.42 100.418 20.58C99.1782 19.74 98.4182 18.47 98.1382 16.77L101.018 16.08C101.178 16.9 101.448 17.55 101.828 18.03C102.208 18.51 102.678 18.85 103.238 19.05C103.818 19.25 104.438 19.35 105.098 19.35C106.078 19.35 106.828 19.16 107.348 18.78C107.888 18.4 108.158 17.91 108.158 17.31C108.158 16.71 107.908 16.27 107.408 15.99C106.908 15.71 106.168 15.48 105.188 15.3L104.168 15.12C103.168 14.94 102.258 14.68 101.438 14.34C100.618 14 99.9682 13.53 99.4882 12.93C99.0082 12.33 98.7682 11.56 98.7682 10.62C98.7682 9.22 99.2882 8.14 100.328 7.38C101.368 6.6 102.748 6.21 104.468 6.21C106.128 6.21 107.488 6.59 108.548 7.35C109.628 8.09 110.328 9.1 110.648 10.38L107.768 11.19C107.588 10.29 107.208 9.66 106.628 9.3C106.048 8.92 105.328 8.73 104.468 8.73C103.628 8.73 102.968 8.89 102.488 9.21C102.008 9.51 101.768 9.94 101.768 10.5C101.768 11.1 101.998 11.54 102.458 11.82C102.938 12.1 103.578 12.31 104.378 12.45L105.428 12.63C106.488 12.81 107.458 13.06 108.338 13.38C109.218 13.7 109.908 14.16 110.408 14.76C110.928 15.36 111.188 16.16 111.188 17.16C111.188 18.64 110.638 19.79 109.538 20.61C108.438 21.43 106.958 21.84 105.098 21.84ZM114.8 21.42V6.63H117.89V21.42H114.8ZM116.36 4.62C115.76 4.62 115.25 4.43 114.83 4.05C114.43 3.65 114.23 3.14 114.23 2.52C114.23 1.9 114.43 1.4 114.83 1.02C115.25 0.619997 115.76 0.419997 116.36 0.419997C116.98 0.419997 117.49 0.619997 117.89 1.02C118.29 1.4 118.49 1.9 118.49 2.52C118.49 3.14 118.29 3.65 117.89 4.05C117.49 4.43 116.98 4.62 116.36 4.62ZM129.406 21.84C127.926 21.84 126.606 21.54 125.446 20.94C124.306 20.32 123.406 19.44 122.746 18.3C122.086 17.16 121.756 15.81 121.756 14.25V13.8C121.756 12.24 122.086 10.9 122.746 9.78C123.406 8.64 124.306 7.76 125.446 7.14C126.606 6.52 127.926 6.21 129.406 6.21C130.886 6.21 132.206 6.52 133.366 7.14C134.526 7.76 135.436 8.64 136.096 9.78C136.756 10.9 137.086 12.24 137.086 13.8V14.25C137.086 15.81 136.756 17.16 136.096 18.3C135.436 19.44 134.526 20.32 133.366 20.94C132.206 21.54 130.886 21.84 129.406 21.84ZM129.406 19.08C130.766 19.08 131.866 18.65 132.706 17.79C133.566 16.91 133.996 15.7 133.996 14.16V13.89C133.996 12.35 133.576 11.15 132.736 10.29C131.896 9.41 130.786 8.97 129.406 8.97C128.066 8.97 126.966 9.41 126.106 10.29C125.266 11.15 124.846 12.35 124.846 13.89V14.16C124.846 15.7 125.266 16.91 126.106 17.79C126.966 18.65 128.066 19.08 129.406 19.08ZM140.933 21.42V6.63H143.963V8.85H144.443C144.723 8.25 145.223 7.69 145.943 7.17C146.663 6.65 147.733 6.39 149.153 6.39C150.273 6.39 151.263 6.64 152.123 7.14C153.003 7.64 153.693 8.35 154.193 9.27C154.693 10.17 154.943 11.26 154.943 12.54V21.42H151.853V12.78C151.853 11.5 151.533 10.56 150.893 9.96C150.253 9.34 149.373 9.03 148.253 9.03C146.973 9.03 145.943 9.45 145.163 10.29C144.403 11.13 144.023 12.35 144.023 13.95V21.42H140.933Z" fill="#5846FB"/>
</svg>
