<svg width="330" height="508" viewBox="0 0 330 508" fill="none" xmlns="http://www.w3.org/2000/svg">
<rect y="508" width="508" height="330" rx="165" transform="rotate(-90 0 508)" fill="url(#paint0_linear_1_233)"/>
<mask id="mask0_1_233" style="mask-type:alpha" maskUnits="userSpaceOnUse" x="0" y="0" width="330" height="508">
<rect y="508" width="508" height="330" rx="165" transform="rotate(-90 0 508)" fill="url(#paint1_linear_1_233)"/>
</mask>
<g mask="url(#mask0_1_233)">
<path d="M228.174 296.478L216.923 305C214.922 302.387 167.211 241.436 97.3504 293.064L88.9709 281.693C112.344 264.437 133.693 258.151 152.406 258.151C198.54 258.292 227.704 295.96 228.174 296.478Z" fill="white"/>
<path d="M63.4573 137.921C56.047 132.092 47.4882 127.896 38.3423 125.608L35 139.333C41.2536 140.885 47.1561 143.609 52.3945 147.361C53.9772 148.45 55.5014 149.621 56.9609 150.869C71.5779 163.205 80.4988 181.286 84.1943 190.514C70.1224 197.189 56.8228 205.383 44.5328 214.951L53.1242 226.157C90.9967 197.13 129.905 185.053 168.837 190.302C237.097 199.507 283.278 259.446 283.725 260.058L289.351 255.797L295 251.536C293.258 249.182 256.586 201.461 198.118 182.557C207.533 165.654 235.943 123.395 291.563 105.15L287.162 91.7311C242.891 106.433 205.986 137.629 184.113 178.837C179.805 177.872 175.357 177.048 170.837 176.483C164.261 175.591 157.632 175.143 150.995 175.141C144.809 175.142 138.629 175.543 132.494 176.342C132.944 169.092 132.091 161.82 129.976 154.871C144.339 152.233 158.084 146.94 170.508 139.263C220.102 108.658 232.036 50.179 232.507 47.7306L218.643 44.9999C218.643 45.5413 207.298 99.9474 162.952 127.398C151.117 134.626 137.963 139.427 124.256 141.523C118.938 132.291 111.955 124.124 103.66 117.439C176.157 108.705 186.89 48.1308 186.984 47.4716L173.05 45.1174C172.626 47.6129 161.658 106.327 81.252 104.208L46.6277 103.267L78.1215 117.698C90.1674 123.581 100.652 132.229 108.721 142.936C93.4754 143.327 78.2477 141.64 63.4573 137.921ZM115.9 156.613C118.332 163.705 119.09 171.263 118.112 178.696C111.027 180.326 104.059 182.434 97.2578 185.005C92.9723 174.495 87.3643 164.575 80.5694 155.483C92.2688 157.158 104.117 157.537 115.9 156.613Z" fill="white"/>
<path d="M262.424 279.103L256.563 283.034L250.702 286.989C250.396 286.518 217.749 239.057 166.413 231.43C135.484 226.839 103.755 237.503 72.0961 263.117L63.1987 252.123C92.6918 228.275 122.561 216.269 152.243 216.269C157.758 216.262 163.266 216.671 168.719 217.493C226.105 226.109 260.964 276.937 262.424 279.103Z" fill="white"/>
</g>
<path d="M209.297 375C209.297 374.171 208.626 373.5 207.797 373.5L194.297 373.5C193.469 373.5 192.797 374.171 192.797 375C192.797 375.828 193.469 376.5 194.297 376.5H206.297V388.5C206.297 389.328 206.969 390 207.797 390C208.626 390 209.297 389.328 209.297 388.5L209.297 375ZM187.998 394.799L189.059 395.859L208.858 376.06L207.797 375L206.736 373.939L186.938 393.738L187.998 394.799Z" fill="white"/>
<path d="M120.5 457.698C120.5 458.527 121.172 459.198 122 459.198L135.5 459.198C136.328 459.198 137 458.527 137 457.698C137 456.87 136.328 456.198 135.5 456.198L123.5 456.198L123.5 444.198C123.5 443.37 122.828 442.698 122 442.698C121.172 442.698 120.5 443.37 120.5 444.198L120.5 457.698ZM141.799 437.899L140.738 436.839L120.939 456.638L122 457.698L123.061 458.759L142.86 438.96L141.799 437.899Z" fill="white"/>
<path d="M120.5 375C120.5 374.171 121.172 373.5 122 373.5L135.5 373.5C136.328 373.5 137 374.171 137 375C137 375.828 136.328 376.5 135.5 376.5H123.5V388.5C123.5 389.328 122.828 390 122 390C121.172 390 120.5 389.328 120.5 388.5L120.5 375ZM141.799 394.799L140.738 395.859L120.939 376.06L122 375L123.061 373.939L142.86 393.738L141.799 394.799Z" fill="white"/>
<path d="M209.297 457.698C209.297 458.527 208.626 459.198 207.797 459.198L194.297 459.198C193.469 459.198 192.797 458.527 192.797 457.698C192.797 456.87 193.469 456.198 194.297 456.198L206.297 456.198L206.297 444.198C206.297 443.37 206.969 442.698 207.797 442.698C208.626 442.698 209.297 443.37 209.297 444.198L209.297 457.698ZM187.998 437.899L189.059 436.839L208.858 456.638L207.797 457.698L206.737 458.759L186.938 438.96L187.998 437.899Z" fill="white"/>
<defs>
<linearGradient id="paint0_linear_1_233" x1="-16.5" y1="673.632" x2="535.5" y2="673.632" gradientUnits="userSpaceOnUse">
<stop stop-color="#2C18E5"/>
<stop offset="0.46875" stop-color="#5442F4"/>
<stop offset="1" stop-color="#5442F5"/>
</linearGradient>
<linearGradient id="paint1_linear_1_233" x1="-16.5" y1="673.632" x2="535.5" y2="673.632" gradientUnits="userSpaceOnUse">
<stop stop-color="#2C18E5"/>
<stop offset="0.46875" stop-color="#5442F4"/>
<stop offset="1" stop-color="#5442F5"/>
</linearGradient>
</defs>
</svg>
