<svg width="68" height="70" viewBox="0 0 68 70" fill="none" xmlns="http://www.w3.org/2000/svg">
<path d="M60.9034 69.9346C57.4012 69.9346 54.3247 69.8936 51.252 69.957C50.2228 69.9756 49.8859 69.3156 49.4564 68.637L34.6479 45.2851C33.5373 43.5513 33.5373 43.5587 32.4933 45.2329C27.5991 52.9696 22.6752 60.684 17.8365 68.4543C17.1183 69.6027 16.3557 70.0352 15.0303 69.9681C12.7535 69.8488 10.4693 69.9681 8.19248 69.9197C7.68158 69.9197 6.98188 70.2291 6.71162 69.6326C6.48579 69.159 7.04852 68.7564 7.30026 68.3537C11.3973 61.8734 15.5005 55.3957 19.6098 48.9204C19.8357 48.5699 20.0393 48.2045 20.254 47.8429C19.6802 47.3544 19.1101 47.5558 18.5918 47.5558C12.9867 47.5371 7.37801 47.4961 1.77298 47.5781C0.35877 47.6005 -0.0780867 47.1717 0.0440836 45.7921C0.169958 44.2461 0.169958 42.6924 0.0440836 41.1464C-0.1003 39.4797 0.388383 38.9502 2.13949 38.9651C13.1718 39.0509 24.2005 39.0062 35.2328 39.0062C45.2286 39.0062 55.1984 39.0323 65.1794 38.9801C66.5714 38.9801 67.1933 39.2485 67.0675 40.7959C66.9342 42.4661 66.9342 44.1443 67.0675 45.8145C67.1785 47.2761 66.601 47.5632 65.2719 47.5483C59.852 47.4775 54.4284 47.5185 49.0048 47.5185H46.7613L60.9034 69.9346Z" fill="white"/>
<path d="M61.1219 0.0241947L47.0538 22.2688H59.2153C61.3736 22.2688 63.5283 22.3173 65.6829 22.2464C66.7417 22.2129 67.0786 22.5857 67.0416 23.6297C66.9712 25.494 66.9453 27.3583 67.0416 29.2226C67.1156 30.5537 66.6269 30.878 65.3645 30.8669C58.4008 30.8109 51.4408 30.8408 44.4808 30.8408C30.3128 30.8408 16.1447 30.8184 1.98034 30.8743C0.477278 30.8743 -0.115058 30.5499 0.0182187 28.9504C0.14225 27.2811 0.14225 25.6048 0.0182187 23.9355C-0.059526 22.6491 0.336603 22.239 1.65086 22.2539C7.37806 22.321 13.1089 22.2837 18.8361 22.28C19.1323 22.28 19.4285 22.2464 20.0764 22.2091L6.05269 0.0540295C9.65856 0.0540295 12.9387 0.0540295 16.2224 0.0540295C16.9629 0.0540295 17.148 0.799737 17.4627 1.29564C22.4852 9.2499 27.5041 17.1942 32.5192 25.1286C32.808 25.5835 33.1301 26.016 33.5854 26.676C35.766 23.2494 37.854 19.9869 39.9272 16.717C43.1665 11.6014 46.4207 6.48952 49.6157 1.34038C50.2006 0.39705 50.8189 -0.0317328 51.9628 0.00182421C54.906 0.080124 57.8418 0.0241947 61.1219 0.0241947Z" fill="white"/>
</svg>
