<svg width="73" height="72" viewBox="0 0 73 72" fill="none" xmlns="http://www.w3.org/2000/svg">
<path d="M18.5089 2.36002L21.6252 0C22.1793 0.723652 35.3941 17.6023 54.7437 3.30529L57.0646 6.45421C50.5908 11.2329 44.6777 12.9736 39.4948 12.9736C26.7168 12.9345 18.6393 2.50344 18.5089 2.36002Z" fill="white"/>
<path d="M64.1312 46.2679C66.1837 47.8821 68.5543 49.044 71.0874 49.6775L72.0132 45.8768C70.2811 45.4471 68.6462 44.6927 67.1953 43.6536C66.757 43.3523 66.3348 43.028 65.9306 42.6822C61.882 39.2661 59.4112 34.2592 58.3876 31.7036C62.2852 29.8552 65.9688 27.586 69.3728 24.9365L66.9932 21.8332C56.5035 29.8717 45.727 33.2161 34.9439 31.7623C16.0377 29.2132 3.24666 12.6148 3.12279 12.4453L1.56465 13.6254L0 14.8053C0.482435 15.4573 10.6396 28.6721 26.8338 33.9072C24.226 38.5881 16.3571 50.2904 0.951825 55.3429L2.17095 59.0589C14.4327 54.9876 24.6546 46.3488 30.7128 34.9372C31.9059 35.2045 33.1381 35.4327 34.3898 35.5891C36.2113 35.8362 38.0474 35.9604 39.8856 35.9608C41.5991 35.9606 43.3107 35.8496 45.0099 35.6283C44.8853 37.6359 45.1215 39.6497 45.7074 41.574C41.7292 42.3046 37.9221 43.7704 34.481 45.8963C20.7447 54.3715 17.4394 70.5657 17.309 71.2437L21.1489 71.9999C21.1489 71.85 24.2912 56.7837 36.5738 49.182C39.8517 47.1805 43.495 45.8508 47.2916 45.2704C48.7644 47.8271 50.6986 50.0885 52.9961 51.9398C32.9164 54.3585 29.9435 71.1329 29.9175 71.3154L33.7769 71.9674C33.8943 71.2763 36.9323 55.017 59.2026 55.6037L68.7926 55.8644L60.0696 51.868C56.7332 50.239 53.8292 47.8443 51.5944 44.8793C55.817 44.7709 60.0347 45.2381 64.1312 46.2679ZM49.606 41.0915C48.9323 39.1278 48.7225 37.0347 48.9932 34.9764C50.9558 34.5249 52.8856 33.9411 54.7694 33.2291C55.9563 36.1396 57.5096 38.8869 59.3916 41.4045C56.1512 40.9406 52.8695 40.8357 49.606 41.0915Z" fill="white"/>
<path d="M9.02271 7.17177L10.646 6.08301L12.2694 4.98779C12.3541 5.11818 21.3965 18.2612 35.6153 20.3735C44.1818 21.6448 52.9699 18.6916 61.7385 11.5985L64.2028 14.643C56.034 21.2471 47.7609 24.572 39.54 24.572C38.0124 24.5739 36.4869 24.4606 34.9764 24.233C19.0821 21.8469 9.42691 7.77156 9.02271 7.17177Z" fill="white"/>
</svg>
