<svg width="75" height="76" viewBox="0 0 75 76" fill="none" xmlns="http://www.w3.org/2000/svg">
<path d="M2.46659 33.4228L0 32.1127L17.0288 0L33.1966 32.1406L30.7021 33.3948L16.9636 6.08279L2.46659 33.4228Z" fill="#FF83D5"/>
<path d="M73.386 34.1629H41.9928V3.0415H44.7852V31.3705H73.386V34.1629Z" fill="#FF83D5"/>
<path d="M32.6709 42.54H1.23352V45.3324H32.6709V42.54Z" fill="#FF83D5"/>
<path d="M32.6709 57.6284H1.23352V60.4208H32.6709V57.6284Z" fill="#FF83D5"/>
<path d="M32.6709 72.7168H1.23352V75.5092H32.6709V72.7168Z" fill="#FF83D5"/>
<path d="M60.0012 58.8428L74.1934 73.0352L72.2178 75.0085L58.0279 60.8184L42.8467 75.9998L40.8711 74.0265L56.0546 58.8451L41.2318 44.0221L43.205 42.0488L58.0279 56.8695L72.8484 42.0488L74.8217 44.0221L60.0012 58.8428Z" fill="#FF83D5"/>
</svg>
